<mxfile modified="2020-06-22T13:15:16.716Z" host="app.diagrams.net" agent="5.0 (Windows NT 10.0; Win64; x64) AppleWebKit/537.36 (KHTML, like Gecko) Chrome/83.0.4103.106 Safari/537.36" etag="cPjwNgHnH3f-RwvnqstN" version="13.3.0" type="github">
  <diagram name="Page-1" id="97a40813-6b03-0c74-37c1-0168de264b11">
    <mxGraphModel dx="824" dy="1278" grid="1" gridSize="10" guides="1" tooltips="1" connect="1" arrows="1" fold="1" page="1" pageScale="1" pageWidth="1000" pageHeight="300" background="#ffffff" math="0" shadow="0">
      <root>
        <mxCell id="0" />
        <mxCell id="1" parent="0" />
        <mxCell id="wsxFhhJqC8uP3kLpo3IL-1" value="" style="rounded=0;whiteSpace=wrap;html=1;" vertex="1" parent="1">
          <mxGeometry x="30" y="-117" width="250" height="217" as="geometry" />
        </mxCell>
        <mxCell id="wsxFhhJqC8uP3kLpo3IL-4" value="Chrome (client)" style="rounded=0;whiteSpace=wrap;html=1;" vertex="1" parent="1">
          <mxGeometry x="30" y="-200" width="250" height="70" as="geometry" />
        </mxCell>
        <mxCell id="wsxFhhJqC8uP3kLpo3IL-7" value="Container / Browser" style="rounded=0;whiteSpace=wrap;html=1;" vertex="1" parent="1">
          <mxGeometry x="160" y="-51" width="100" height="37" as="geometry" />
        </mxCell>
        <mxCell id="wsxFhhJqC8uP3kLpo3IL-8" value="Editor" style="rounded=0;whiteSpace=wrap;html=1;" vertex="1" parent="1">
          <mxGeometry x="160" y="-3" width="100" height="37" as="geometry" />
        </mxCell>
        <mxCell id="wsxFhhJqC8uP3kLpo3IL-9" value="Lively4 Server" style="rounded=0;whiteSpace=wrap;html=1;" vertex="1" parent="1">
          <mxGeometry x="580" y="-218" width="230" height="70" as="geometry" />
        </mxCell>
        <mxCell id="wsxFhhJqC8uP3kLpo3IL-10" value="" style="endArrow=classic;html=1;" edge="1" parent="1">
          <mxGeometry width="50" height="50" relative="1" as="geometry">
            <mxPoint x="300" as="sourcePoint" />
            <mxPoint x="550" as="targetPoint" />
          </mxGeometry>
        </mxCell>
        <mxCell id="wsxFhhJqC8uP3kLpo3IL-11" value="" style="endArrow=classic;html=1;" edge="1" parent="1">
          <mxGeometry width="50" height="50" relative="1" as="geometry">
            <mxPoint x="555" y="80" as="sourcePoint" />
            <mxPoint x="305" y="80" as="targetPoint" />
          </mxGeometry>
        </mxCell>
        <mxCell id="wsxFhhJqC8uP3kLpo3IL-12" value="&lt;b&gt;fetch requests&lt;/b&gt;" style="text;html=1;strokeColor=none;fillColor=none;align=center;verticalAlign=middle;whiteSpace=wrap;rounded=0;" vertex="1" parent="1">
          <mxGeometry x="370" y="-43" width="120" height="20" as="geometry" />
        </mxCell>
        <mxCell id="wsxFhhJqC8uP3kLpo3IL-13" value="OPTIONS / GET / PUT" style="text;html=1;strokeColor=none;fillColor=none;align=center;verticalAlign=middle;whiteSpace=wrap;rounded=0;" vertex="1" parent="1">
          <mxGeometry x="340" y="7" width="160" height="20" as="geometry" />
        </mxCell>
        <mxCell id="wsxFhhJqC8uP3kLpo3IL-14" value="url, ... authentification" style="text;html=1;strokeColor=none;fillColor=none;align=center;verticalAlign=middle;whiteSpace=wrap;rounded=0;" vertex="1" parent="1">
          <mxGeometry x="360" y="40" width="120" height="20" as="geometry" />
        </mxCell>
        <mxCell id="wsxFhhJqC8uP3kLpo3IL-15" value="FS" style="shape=cylinder;whiteSpace=wrap;html=1;boundedLbl=1;backgroundOutline=1;" vertex="1" parent="1">
          <mxGeometry x="770" y="-90" width="110" height="120" as="geometry" />
        </mxCell>
        <mxCell id="wsxFhhJqC8uP3kLpo3IL-16" value="git repo" style="shape=cylinder;whiteSpace=wrap;html=1;boundedLbl=1;backgroundOutline=1;" vertex="1" parent="1">
          <mxGeometry x="860" y="-133" width="110" height="120" as="geometry" />
        </mxCell>
        <mxCell id="wsxFhhJqC8uP3kLpo3IL-17" value="" style="rounded=0;whiteSpace=wrap;html=1;" vertex="1" parent="1">
          <mxGeometry x="590" y="-73" width="160" height="183" as="geometry" />
        </mxCell>
        <mxCell id="wsxFhhJqC8uP3kLpo3IL-18" value="serve files" style="text;html=1;strokeColor=none;fillColor=none;align=center;verticalAlign=middle;whiteSpace=wrap;rounded=0;" vertex="1" parent="1">
          <mxGeometry x="590" y="-38" width="120" height="20" as="geometry" />
        </mxCell>
        <mxCell id="wsxFhhJqC8uP3kLpo3IL-19" value="sync (pull, push, merge)" style="text;html=1;strokeColor=none;fillColor=none;align=center;verticalAlign=middle;whiteSpace=wrap;rounded=0;" vertex="1" parent="1">
          <mxGeometry x="590" y="73" width="170" height="20" as="geometry" />
        </mxCell>
        <mxCell id="wsxFhhJqC8uP3kLpo3IL-35" style="edgeStyle=orthogonalEdgeStyle;rounded=0;orthogonalLoop=1;jettySize=auto;html=1;entryX=0;entryY=0.5;entryDx=0;entryDy=0;" edge="1" parent="1" source="wsxFhhJqC8uP3kLpo3IL-21" target="wsxFhhJqC8uP3kLpo3IL-29">
          <mxGeometry relative="1" as="geometry" />
        </mxCell>
        <mxCell id="wsxFhhJqC8uP3kLpo3IL-21" value="Lively4 Auth Server" style="rounded=0;whiteSpace=wrap;html=1;" vertex="1" parent="1">
          <mxGeometry x="315" y="-360" width="230" height="70" as="geometry" />
        </mxCell>
        <mxCell id="wsxFhhJqC8uP3kLpo3IL-26" value="" style="endArrow=classic;startArrow=classic;html=1;exitX=0;exitY=0.5;exitDx=0;exitDy=0;entryX=0;entryY=0.5;entryDx=0;entryDy=0;" edge="1" parent="1" source="wsxFhhJqC8uP3kLpo3IL-27" target="wsxFhhJqC8uP3kLpo3IL-21">
          <mxGeometry width="50" height="50" relative="1" as="geometry">
            <mxPoint x="270" y="90" as="sourcePoint" />
            <mxPoint x="560" y="-550" as="targetPoint" />
            <Array as="points">
              <mxPoint x="10" y="-36" />
              <mxPoint x="10" y="-325" />
            </Array>
          </mxGeometry>
        </mxCell>
        <mxCell id="wsxFhhJqC8uP3kLpo3IL-27" value="Sync Tool" style="rounded=0;whiteSpace=wrap;html=1;" vertex="1" parent="1">
          <mxGeometry x="50" y="-55" width="80" height="37" as="geometry" />
        </mxCell>
        <mxCell id="wsxFhhJqC8uP3kLpo3IL-28" value="create commits" style="text;html=1;strokeColor=none;fillColor=none;align=center;verticalAlign=middle;whiteSpace=wrap;rounded=0;" vertex="1" parent="1">
          <mxGeometry x="610" y="8.5" width="120" height="20" as="geometry" />
        </mxCell>
        <mxCell id="wsxFhhJqC8uP3kLpo3IL-29" value="GitHub" style="rounded=0;whiteSpace=wrap;html=1;" vertex="1" parent="1">
          <mxGeometry x="700" y="-530" width="120" height="60" as="geometry" />
        </mxCell>
        <mxCell id="wsxFhhJqC8uP3kLpo3IL-30" value="Repository" style="shape=cylinder;whiteSpace=wrap;html=1;boundedLbl=1;backgroundOutline=1;" vertex="1" parent="1">
          <mxGeometry x="780" y="-490" width="110" height="120" as="geometry" />
        </mxCell>
        <mxCell id="wsxFhhJqC8uP3kLpo3IL-31" value="" style="endArrow=classic;startArrow=classic;html=1;exitX=1;exitY=0.5;exitDx=0;exitDy=0;entryX=1;entryY=0.25;entryDx=0;entryDy=0;" edge="1" parent="1" source="wsxFhhJqC8uP3kLpo3IL-19" target="wsxFhhJqC8uP3kLpo3IL-29">
          <mxGeometry width="50" height="50" relative="1" as="geometry">
            <mxPoint x="1030" y="30" as="sourcePoint" />
            <mxPoint x="1080" y="-20" as="targetPoint" />
            <Array as="points">
              <mxPoint x="1000" y="83" />
              <mxPoint x="1000" y="-515" />
            </Array>
          </mxGeometry>
        </mxCell>
        <mxCell id="wsxFhhJqC8uP3kLpo3IL-33" value="(A) Browser, Server, GitHub Collaboration" style="text;html=1;strokeColor=none;fillColor=none;align=center;verticalAlign=middle;whiteSpace=wrap;rounded=0;direction=south;fontSize=16;fontColor=#004C99;" vertex="1" parent="1">
          <mxGeometry x="20" y="-580" width="310" height="40" as="geometry" />
        </mxCell>
        <mxCell id="wsxFhhJqC8uP3kLpo3IL-36" value="Lively4" style="text;html=1;strokeColor=none;fillColor=none;align=center;verticalAlign=middle;whiteSpace=wrap;rounded=0;" vertex="1" parent="1">
          <mxGeometry x="50" y="-100" width="40" height="20" as="geometry" />
        </mxCell>
      </root>
    </mxGraphModel>
  </diagram>
</mxfile>
